<mxfile host="app.diagrams.net" modified="2020-10-23T10:25:47.500Z" agent="5.0 (Windows NT 6.1; Win64; x64) AppleWebKit/537.36 (KHTML, like Gecko) Chrome/84.0.4147.125 Safari/537.36" etag="XcAmMpARpVFR28gkcAOn" version="13.8.1" type="github">
  <diagram id="z0-q6e8RFLVKW7NnnHV9" name="Page-1">
    <mxGraphModel dx="2017" dy="473" grid="1" gridSize="10" guides="1" tooltips="1" connect="1" arrows="1" fold="1" page="1" pageScale="1" pageWidth="827" pageHeight="1169" math="0" shadow="0">
      <root>
        <mxCell id="0" />
        <mxCell id="1" parent="0" />
        <mxCell id="EkEOsJl2wXS9BqM-e3Qg-1" value="&lt;font style=&quot;vertical-align: inherit&quot;&gt;&lt;font style=&quot;vertical-align: inherit&quot;&gt;开始&lt;/font&gt;&lt;/font&gt;" style="rounded=1;whiteSpace=wrap;html=1;" vertex="1" parent="1">
          <mxGeometry x="339" width="80" height="60" as="geometry" />
        </mxCell>
        <mxCell id="EkEOsJl2wXS9BqM-e3Qg-2" value="" style="strokeWidth=2;html=1;shape=mxgraph.flowchart.annotation_1;align=left;pointerEvents=1;rotation=90;" vertex="1" parent="1">
          <mxGeometry x="361" y="-37" width="36" height="300" as="geometry" />
        </mxCell>
        <mxCell id="EkEOsJl2wXS9BqM-e3Qg-3" value="" style="endArrow=classic;html=1;exitX=0.5;exitY=1;exitDx=0;exitDy=0;entryX=0;entryY=0.5;entryDx=0;entryDy=0;entryPerimeter=0;" edge="1" parent="1" source="EkEOsJl2wXS9BqM-e3Qg-1" target="EkEOsJl2wXS9BqM-e3Qg-2">
          <mxGeometry width="50" height="50" relative="1" as="geometry">
            <mxPoint x="390" y="270" as="sourcePoint" />
            <mxPoint x="440" y="220" as="targetPoint" />
          </mxGeometry>
        </mxCell>
        <mxCell id="EkEOsJl2wXS9BqM-e3Qg-4" value="&lt;font style=&quot;vertical-align: inherit&quot;&gt;&lt;font style=&quot;vertical-align: inherit&quot;&gt;后台管理&lt;/font&gt;&lt;/font&gt;" style="rounded=1;whiteSpace=wrap;html=1;" vertex="1" parent="1">
          <mxGeometry x="160" y="130" width="120" height="60" as="geometry" />
        </mxCell>
        <mxCell id="EkEOsJl2wXS9BqM-e3Qg-5" value="&lt;font style=&quot;vertical-align: inherit&quot;&gt;&lt;font style=&quot;vertical-align: inherit&quot;&gt;客户端&lt;/font&gt;&lt;/font&gt;" style="rounded=1;whiteSpace=wrap;html=1;" vertex="1" parent="1">
          <mxGeometry x="460" y="120" width="120" height="60" as="geometry" />
        </mxCell>
        <mxCell id="EkEOsJl2wXS9BqM-e3Qg-6" value="" style="endArrow=classic;html=1;exitX=0.5;exitY=1;exitDx=0;exitDy=0;" edge="1" parent="1" source="EkEOsJl2wXS9BqM-e3Qg-4">
          <mxGeometry width="50" height="50" relative="1" as="geometry">
            <mxPoint x="280" y="280" as="sourcePoint" />
            <mxPoint x="220" y="220" as="targetPoint" />
          </mxGeometry>
        </mxCell>
        <mxCell id="EkEOsJl2wXS9BqM-e3Qg-7" value="&lt;font style=&quot;vertical-align: inherit&quot;&gt;&lt;font style=&quot;vertical-align: inherit&quot;&gt;&lt;font style=&quot;vertical-align: inherit&quot;&gt;&lt;font style=&quot;vertical-align: inherit&quot;&gt;&lt;font style=&quot;vertical-align: inherit&quot;&gt;&lt;font style=&quot;vertical-align: inherit&quot;&gt;&lt;font style=&quot;vertical-align: inherit&quot;&gt;&lt;font style=&quot;vertical-align: inherit&quot;&gt;是否登入&lt;/font&gt;&lt;/font&gt;&lt;/font&gt;&lt;/font&gt;&lt;/font&gt;&lt;/font&gt;&lt;/font&gt;&lt;/font&gt;" style="rhombus;whiteSpace=wrap;html=1;" vertex="1" parent="1">
          <mxGeometry x="170" y="220" width="100" height="50" as="geometry" />
        </mxCell>
        <mxCell id="EkEOsJl2wXS9BqM-e3Qg-8" value="" style="endArrow=classic;html=1;" edge="1" parent="1">
          <mxGeometry width="50" height="50" relative="1" as="geometry">
            <mxPoint x="519.5" y="180" as="sourcePoint" />
            <mxPoint x="520" y="210" as="targetPoint" />
          </mxGeometry>
        </mxCell>
        <mxCell id="EkEOsJl2wXS9BqM-e3Qg-9" value="" style="endArrow=classic;html=1;" edge="1" parent="1">
          <mxGeometry width="50" height="50" relative="1" as="geometry">
            <mxPoint x="220" y="270" as="sourcePoint" />
            <mxPoint x="220" y="320" as="targetPoint" />
          </mxGeometry>
        </mxCell>
        <mxCell id="EkEOsJl2wXS9BqM-e3Qg-10" value="&lt;font style=&quot;vertical-align: inherit&quot;&gt;&lt;font style=&quot;vertical-align: inherit&quot;&gt;是&lt;/font&gt;&lt;/font&gt;" style="text;html=1;strokeColor=none;fillColor=none;align=center;verticalAlign=middle;whiteSpace=wrap;rounded=0;" vertex="1" parent="1">
          <mxGeometry x="220" y="280" width="40" height="20" as="geometry" />
        </mxCell>
        <mxCell id="EkEOsJl2wXS9BqM-e3Qg-11" value="&lt;font style=&quot;vertical-align: inherit&quot;&gt;&lt;font style=&quot;vertical-align: inherit&quot;&gt;首页展示（默认选中综合）&lt;/font&gt;&lt;/font&gt;" style="rounded=1;whiteSpace=wrap;html=1;" vertex="1" parent="1">
          <mxGeometry x="436.25" y="210" width="170" height="60" as="geometry" />
        </mxCell>
        <mxCell id="EkEOsJl2wXS9BqM-e3Qg-12" value="&lt;font style=&quot;vertical-align: inherit&quot;&gt;&lt;font style=&quot;vertical-align: inherit&quot;&gt;&lt;font style=&quot;vertical-align: inherit&quot;&gt;&lt;font style=&quot;vertical-align: inherit&quot;&gt;&lt;font style=&quot;vertical-align: inherit&quot;&gt;&lt;font style=&quot;vertical-align: inherit&quot;&gt;点击周报或者月报目录&lt;/font&gt;&lt;/font&gt;&lt;/font&gt;&lt;/font&gt;&lt;/font&gt;&lt;/font&gt;" style="rounded=1;whiteSpace=wrap;html=1;" vertex="1" parent="1">
          <mxGeometry x="155" y="320" width="130" height="40" as="geometry" />
        </mxCell>
        <mxCell id="EkEOsJl2wXS9BqM-e3Qg-13" value="" style="endArrow=classic;html=1;" edge="1" parent="1">
          <mxGeometry width="50" height="50" relative="1" as="geometry">
            <mxPoint x="220" y="360" as="sourcePoint" />
            <mxPoint x="220" y="390" as="targetPoint" />
            <Array as="points">
              <mxPoint x="220" y="380" />
            </Array>
          </mxGeometry>
        </mxCell>
        <mxCell id="EkEOsJl2wXS9BqM-e3Qg-14" value="&lt;font style=&quot;vertical-align: inherit&quot;&gt;&lt;font style=&quot;vertical-align: inherit&quot;&gt;&lt;font style=&quot;vertical-align: inherit&quot;&gt;&lt;font style=&quot;vertical-align: inherit&quot;&gt;&lt;font style=&quot;vertical-align: inherit&quot;&gt;&lt;font style=&quot;vertical-align: inherit&quot;&gt;&lt;font style=&quot;vertical-align: inherit&quot;&gt;&lt;font style=&quot;vertical-align: inherit&quot;&gt;是否添加搜索关键字或者排序字段&lt;/font&gt;&lt;/font&gt;&lt;/font&gt;&lt;/font&gt;&lt;/font&gt;&lt;/font&gt;&lt;/font&gt;&lt;/font&gt;" style="rhombus;whiteSpace=wrap;html=1;" vertex="1" parent="1">
          <mxGeometry x="113.75" y="390" width="212.5" height="65" as="geometry" />
        </mxCell>
        <mxCell id="EkEOsJl2wXS9BqM-e3Qg-16" value="" style="endArrow=classic;html=1;" edge="1" parent="1">
          <mxGeometry width="50" height="50" relative="1" as="geometry">
            <mxPoint x="219" y="455.5" as="sourcePoint" />
            <mxPoint x="219" y="500" as="targetPoint" />
          </mxGeometry>
        </mxCell>
        <mxCell id="EkEOsJl2wXS9BqM-e3Qg-17" value="" style="endArrow=classic;html=1;" edge="1" parent="1">
          <mxGeometry width="50" height="50" relative="1" as="geometry">
            <mxPoint x="116.25" y="424.5" as="sourcePoint" />
            <mxPoint x="46.25" y="424.5" as="targetPoint" />
          </mxGeometry>
        </mxCell>
        <mxCell id="EkEOsJl2wXS9BqM-e3Qg-18" value="&lt;font style=&quot;vertical-align: inherit&quot;&gt;&lt;font style=&quot;vertical-align: inherit&quot;&gt;是&lt;/font&gt;&lt;/font&gt;" style="text;html=1;strokeColor=none;fillColor=none;align=center;verticalAlign=middle;whiteSpace=wrap;rounded=0;" vertex="1" parent="1">
          <mxGeometry x="230" y="470" width="40" height="20" as="geometry" />
        </mxCell>
        <mxCell id="EkEOsJl2wXS9BqM-e3Qg-19" value="&lt;font style=&quot;vertical-align: inherit&quot;&gt;&lt;font style=&quot;vertical-align: inherit&quot;&gt;展示根据字段查询到的周报或者月报信息&lt;/font&gt;&lt;/font&gt;" style="rounded=1;whiteSpace=wrap;html=1;" vertex="1" parent="1">
          <mxGeometry x="160" y="500" width="120" height="60" as="geometry" />
        </mxCell>
        <mxCell id="EkEOsJl2wXS9BqM-e3Qg-20" value="&lt;font style=&quot;vertical-align: inherit&quot;&gt;&lt;font style=&quot;vertical-align: inherit&quot;&gt;展示所有周报或者月报信息&lt;/font&gt;&lt;/font&gt;" style="rounded=1;whiteSpace=wrap;html=1;" vertex="1" parent="1">
          <mxGeometry x="-70" y="395" width="120" height="60" as="geometry" />
        </mxCell>
        <mxCell id="EkEOsJl2wXS9BqM-e3Qg-21" value="&lt;font style=&quot;vertical-align: inherit&quot;&gt;&lt;font style=&quot;vertical-align: inherit&quot;&gt;否&lt;/font&gt;&lt;/font&gt;" style="text;html=1;strokeColor=none;fillColor=none;align=center;verticalAlign=middle;whiteSpace=wrap;rounded=0;" vertex="1" parent="1">
          <mxGeometry x="70" y="395" width="40" height="20" as="geometry" />
        </mxCell>
        <mxCell id="EkEOsJl2wXS9BqM-e3Qg-25" value="" style="endArrow=classic;html=1;" edge="1" parent="1">
          <mxGeometry width="50" height="50" relative="1" as="geometry">
            <mxPoint x="170" y="244.5" as="sourcePoint" />
            <mxPoint x="100" y="244.5" as="targetPoint" />
          </mxGeometry>
        </mxCell>
        <mxCell id="EkEOsJl2wXS9BqM-e3Qg-26" value="&lt;font style=&quot;vertical-align: inherit&quot;&gt;&lt;font style=&quot;vertical-align: inherit&quot;&gt;登入页面&lt;/font&gt;&lt;/font&gt;" style="rounded=1;whiteSpace=wrap;html=1;" vertex="1" parent="1">
          <mxGeometry x="-20" y="215" width="120" height="60" as="geometry" />
        </mxCell>
        <mxCell id="EkEOsJl2wXS9BqM-e3Qg-27" value="&lt;font style=&quot;vertical-align: inherit&quot;&gt;&lt;font style=&quot;vertical-align: inherit&quot;&gt;否&lt;/font&gt;&lt;/font&gt;" style="text;html=1;strokeColor=none;fillColor=none;align=center;verticalAlign=middle;whiteSpace=wrap;rounded=0;" vertex="1" parent="1">
          <mxGeometry x="115" y="220" width="40" height="20" as="geometry" />
        </mxCell>
        <mxCell id="EkEOsJl2wXS9BqM-e3Qg-35" value="" style="endArrow=classic;html=1;" edge="1" parent="1">
          <mxGeometry width="50" height="50" relative="1" as="geometry">
            <mxPoint x="520.75" y="270" as="sourcePoint" />
            <mxPoint x="521" y="300" as="targetPoint" />
          </mxGeometry>
        </mxCell>
        <mxCell id="EkEOsJl2wXS9BqM-e3Qg-37" value="是否选中某一产品类别" style="rhombus;whiteSpace=wrap;html=1;" vertex="1" parent="1">
          <mxGeometry x="423.43" y="300" width="195.63" height="50" as="geometry" />
        </mxCell>
        <mxCell id="EkEOsJl2wXS9BqM-e3Qg-38" value="" style="endArrow=classic;html=1;" edge="1" parent="1">
          <mxGeometry width="50" height="50" relative="1" as="geometry">
            <mxPoint x="619.06" y="324.5" as="sourcePoint" />
            <mxPoint x="679.06" y="324.5" as="targetPoint" />
          </mxGeometry>
        </mxCell>
        <mxCell id="EkEOsJl2wXS9BqM-e3Qg-39" value="" style="endArrow=classic;html=1;" edge="1" parent="1">
          <mxGeometry width="50" height="50" relative="1" as="geometry">
            <mxPoint x="520.75" y="350" as="sourcePoint" />
            <mxPoint x="520.75" y="400" as="targetPoint" />
          </mxGeometry>
        </mxCell>
        <mxCell id="EkEOsJl2wXS9BqM-e3Qg-40" value="是" style="text;html=1;strokeColor=none;fillColor=none;align=center;verticalAlign=middle;whiteSpace=wrap;rounded=0;" vertex="1" parent="1">
          <mxGeometry x="520" y="365" width="40" height="20" as="geometry" />
        </mxCell>
        <mxCell id="EkEOsJl2wXS9BqM-e3Qg-41" value="否" style="text;html=1;strokeColor=none;fillColor=none;align=center;verticalAlign=middle;whiteSpace=wrap;rounded=0;" vertex="1" parent="1">
          <mxGeometry x="630" y="300" width="40" height="20" as="geometry" />
        </mxCell>
        <mxCell id="EkEOsJl2wXS9BqM-e3Qg-42" value="首页分析报告展示所有类别的周报或者月报3条数据。" style="rounded=1;whiteSpace=wrap;html=1;" vertex="1" parent="1">
          <mxGeometry x="680" y="302.5" width="120" height="45" as="geometry" />
        </mxCell>
        <mxCell id="EkEOsJl2wXS9BqM-e3Qg-44" value="" style="endArrow=classic;html=1;" edge="1" parent="1">
          <mxGeometry width="50" height="50" relative="1" as="geometry">
            <mxPoint x="739.5" y="347.5" as="sourcePoint" />
            <mxPoint x="739.5" y="397.5" as="targetPoint" />
          </mxGeometry>
        </mxCell>
        <mxCell id="EkEOsJl2wXS9BqM-e3Qg-45" value="点击更多" style="text;html=1;strokeColor=none;fillColor=none;align=center;verticalAlign=middle;whiteSpace=wrap;rounded=0;" vertex="1" parent="1">
          <mxGeometry x="740" y="360" width="60" height="20" as="geometry" />
        </mxCell>
        <mxCell id="EkEOsJl2wXS9BqM-e3Qg-46" value="展示所有类别的周报或者月报以每页20条数据进行分页。" style="rounded=1;whiteSpace=wrap;html=1;" vertex="1" parent="1">
          <mxGeometry x="680" y="400" width="120" height="50" as="geometry" />
        </mxCell>
        <mxCell id="EkEOsJl2wXS9BqM-e3Qg-48" value="" style="strokeWidth=2;html=1;shape=mxgraph.flowchart.annotation_1;align=left;pointerEvents=1;rotation=90;" vertex="1" parent="1">
          <mxGeometry x="508.13" y="345.63" width="26.25" height="135" as="geometry" />
        </mxCell>
        <mxCell id="EkEOsJl2wXS9BqM-e3Qg-50" value="月报" style="rounded=1;whiteSpace=wrap;html=1;" vertex="1" parent="1">
          <mxGeometry x="419" y="420" width="70" height="35" as="geometry" />
        </mxCell>
        <mxCell id="EkEOsJl2wXS9BqM-e3Qg-52" value="周报" style="rounded=1;whiteSpace=wrap;html=1;" vertex="1" parent="1">
          <mxGeometry x="549.06" y="420" width="70" height="35" as="geometry" />
        </mxCell>
        <mxCell id="EkEOsJl2wXS9BqM-e3Qg-53" value="" style="endArrow=classic;html=1;" edge="1" parent="1">
          <mxGeometry width="50" height="50" relative="1" as="geometry">
            <mxPoint x="453.5" y="455" as="sourcePoint" />
            <mxPoint x="454" y="500" as="targetPoint" />
          </mxGeometry>
        </mxCell>
        <mxCell id="EkEOsJl2wXS9BqM-e3Qg-54" value="首页展示该类别的3条月报信息" style="rounded=1;whiteSpace=wrap;html=1;" vertex="1" parent="1">
          <mxGeometry x="394" y="500" width="120" height="60" as="geometry" />
        </mxCell>
        <mxCell id="EkEOsJl2wXS9BqM-e3Qg-55" value="" style="endArrow=classic;html=1;" edge="1" parent="1">
          <mxGeometry width="50" height="50" relative="1" as="geometry">
            <mxPoint x="453.5" y="560" as="sourcePoint" />
            <mxPoint x="453.5" y="610" as="targetPoint" />
          </mxGeometry>
        </mxCell>
        <mxCell id="EkEOsJl2wXS9BqM-e3Qg-56" value="点击更多" style="text;html=1;strokeColor=none;fillColor=none;align=center;verticalAlign=middle;whiteSpace=wrap;rounded=0;" vertex="1" parent="1">
          <mxGeometry x="460" y="575" width="60" height="20" as="geometry" />
        </mxCell>
        <mxCell id="EkEOsJl2wXS9BqM-e3Qg-57" value="展示该类别下的月报数据，以每页20条进行分页" style="rounded=1;whiteSpace=wrap;html=1;" vertex="1" parent="1">
          <mxGeometry x="394" y="610" width="120" height="60" as="geometry" />
        </mxCell>
      </root>
    </mxGraphModel>
  </diagram>
</mxfile>
